<svg width="540" height="540" viewBox="0 0 540 540" fill="none" xmlns="http://www.w3.org/2000/svg">
<path d="M174.518 184H107.141C101.139 184 97.9206 191.058 101.856 195.59L162.245 265.125C164.725 267.981 164.488 272.29 161.71 274.856L24.2635 401.859C19.5847 406.182 22.6437 414 29.0141 414H99.4657C101.264 414 102.993 413.308 104.295 412.068L248.268 274.877C250.983 272.29 251.177 268.024 248.708 265.201L179.787 186.392C178.458 184.872 176.537 184 174.518 184Z" fill="url(#paint0_linear_207_24)"/>
<path d="M365.73 356H433.107C439.108 356 442.327 348.942 438.392 344.41L378.003 274.875C375.523 272.019 375.76 267.71 378.538 265.144L515.984 138.141C520.663 133.818 517.604 126 511.234 126H440.782C438.984 126 437.255 126.692 435.953 127.932L291.98 265.123C289.265 267.71 289.071 271.976 291.539 274.799L360.461 353.608C361.79 355.128 363.711 356 365.73 356Z" fill="url(#paint1_linear_207_24)"/>
<defs>
<linearGradient id="paint0_linear_207_24" x1="22" y1="126" x2="518" y2="414" gradientUnits="userSpaceOnUse">
<stop stop-color="#00FFEF"/>
<stop offset="1" stop-color="#4166F5"/>
</linearGradient>
<linearGradient id="paint1_linear_207_24" x1="22" y1="126" x2="518" y2="414" gradientUnits="userSpaceOnUse">
<stop stop-color="#00FFEF"/>
<stop offset="1" stop-color="#4166F5"/>
</linearGradient>
</defs>
</svg>
